{
  "accessors": [
    {
      "bufferView": 1,
      "componentType": 5126,
      "count": 4241,
      "max": [
        0.02915429137647152,
        0.0027813182678073645,
        0.03128451108932495
      ],
      "min": [
        -0.02915428951382637,
        -0.0044066403061151505,
        -0.027024073526263237
      ],
      "type": "VEC3"
    },
    {
      "bufferView": 1,
      "byteOffset": 50892,
      "componentType": 5126,
      "count": 4241,
      "max": [
        1.0,
        1.0,
        1.0
      ],
      "min": [
        -1.0,
        -1.0,
        -1.0
      ],
      "type": "VEC3"
    },
    {
      "bufferView": 0,
      "componentType": 5125,
      "count": 14394,
      "type": "SCALAR"
    }
  ],
  "asset": {
    "extras": {
      "author": "Deacon Skywalker (https://sketchfab.com/deaconskywalker9)",
      "license": "CC-BY-4.0 (http://creativecommons.org/licenses/by/4.0/)",
      "source": "https://sketchfab.com/3d-models/stellar-coin-3d-model-e77358ca6a8b43629f613c92878588bd",
      "title": "Stellar Coin 3D Model"
    },
    "generator": "Sketchfab-16.3.0",
    "version": "2.0"
  },
  "bufferViews": [
    {
      "buffer": 0,
      "byteLength": 57576,
      "name": "floatBufferViews",
      "target": 34963
    },
    {
      "buffer": 0,
      "byteLength": 101784,
      "byteOffset": 57576,
      "byteStride": 12,
      "name": "floatBufferViews",
      "target": 34962
    }
  ],
  "buffers": [
    {
      "byteLength": 159360,
      "uri": "scene.bin"
    }
  ],
  "materials": [
    {
      "doubleSided": true,
      "name": "Scene_-_Root",
      "pbrMetallicRoughness": {
        "baseColorFactor": [
          1.0,
          0.5209955732043541,
          0.0,
          1.0
        ],
        "metallicFactor": 0.0,
        "roughnessFactor": 0.6
      }
    }
  ],
  "meshes": [
    {
      "name": "Object_0",
      "primitives": [
        {
          "attributes": {
            "NORMAL": 1,
            "POSITION": 0
          },
          "indices": 2,
          "material": 0,
          "mode": 4
        }
      ]
    }
  ],
  "nodes": [
    {
      "children": [
        1
      ],
      "matrix": [
        1.0,
        0.0,
        0.0,
        0.0,
        0.0,
        2.220446049250313e-16,
        -1.0,
        0.0,
        0.0,
        1.0,
        2.220446049250313e-16,
        0.0,
        0.0,
        0.0,
        0.0,
        1.0
      ],
      "name": "Sketchfab_model"
    },
    {
      "children": [
        2
      ],
      "name": "497572fc23844920b3245c8ac72c7c53.stl.cleaner.materialmerger.gles"
    },
    {
      "mesh": 0,
      "name": "Object_2"
    }
  ],
  "scene": 0,
  "scenes": [
    {
      "name": "Sketchfab_Scene",
      "nodes": [
        0
      ]
    }
  ]
}
