<svg width="1335" height="436" viewBox="0 0 1335 436" fill="none" xmlns="http://www.w3.org/2000/svg">
<g clip-path="url(#clip0_2_2)">
<path fill-rule="evenodd" clip-rule="evenodd" d="M498.714 135.435C524.128 135.435 549.003 121.909 549.003 95.9404C549.003 69.6109 526.111 61.676 505.203 57.3479L489.701 54.1017C478.526 51.7573 469.874 46.1668 469.874 35.3465C469.874 21.6407 486.277 17.1322 495.83 17.1322C508.267 17.1322 522.506 21.821 526.652 37.3302H546.479C541.432 11.0007 520.704 0 496.731 0C474.741 0 448.965 11.5417 448.965 36.2482C448.965 58.2496 466.63 68.7092 485.195 72.4963L501.237 75.7425L502.079 75.9186C515.81 78.8475 528.274 84.3086 528.274 97.5635C528.274 110.187 516.378 118.302 499.435 118.302C481.049 118.302 468.973 109.105 465.188 91.2516H445C448.064 118.663 468.432 135.435 498.714 135.435ZM602.776 133.09V118.122H594.845C585.58 118.122 583.889 115.655 583.851 106.018L583.85 50.3146H602.957V36.0678H583.85V11.181H565.105V36.0678H550.324V50.3146H565.105V108.203C565.105 128.221 569.431 133.09 589.078 133.09H602.776ZM653.486 135.435C678.18 135.435 692.599 120.647 697.106 104.597H678.18C674.214 113.794 666.283 119.385 652.765 119.385C637.624 119.385 626.268 108.204 624.466 90.3499H698.367C700.35 58.7906 682.866 34.2644 652.945 34.2644C625.367 34.2644 605.18 54.2821 605.18 84.3987C605.18 112.532 622.123 135.435 653.486 135.435ZM678.901 75.5621H624.826C627.35 57.1675 638.165 49.5933 652.765 49.5933C668.266 49.5933 678.36 61.135 678.901 75.5621ZM727.087 133.09V2.34441H708.341V133.09H727.087ZM762.655 133.09V2.34441H743.91V133.09H762.655ZM808.318 135.435C824 135.435 834.995 130.025 840.763 120.286C841.123 126.418 841.664 129.303 842.385 133.09H860.409C858.607 124.434 857.706 112.532 857.706 98.1045C857.706 93.9567 858.066 77.1852 858.066 74.8408C858.427 45.8062 844.007 33.7234 818.953 33.7234C796.782 33.7234 779.839 46.1668 778.217 66.7255H797.143C797.864 54.8231 805.254 48.1506 818.232 48.1506C830.128 48.1506 839.14 53.9214 839.14 71.0536V73.0374C801.469 77.0048 773.711 83.3167 773.711 106.941C773.711 124.614 788.671 135.435 808.318 135.435ZM812.464 121.008C801.108 121.008 794.078 115.417 794.078 106.58C794.078 93.9567 809.94 89.8089 840.042 86.9235V93.9567C840.042 113.253 827.965 121.008 812.464 121.008ZM891.472 133.09V82.2347C891.472 61.8563 899.042 54.8231 913.462 54.8231C916.526 54.8231 919.771 55.0034 923.195 55.3641V35.8875C921.573 35.7072 919.591 35.7072 917.968 35.7072C905.892 35.8875 896.158 42.1994 891.112 53.2001V36.0678H872.726V133.09H891.472ZM507.726 285.717C536.746 285.717 558.556 269.848 564.143 240.813H544.316C540.351 258.125 527.553 268.585 508.267 268.585C485.556 268.585 468.973 250.01 468.973 217.729C468.973 184.908 486.096 167.415 508.086 167.415C527.193 167.415 539.81 178.235 543.775 195.187H563.603C558.195 166.513 536.926 150.283 508.988 150.283C471.496 150.283 447.884 176.792 447.884 217.729C447.884 257.945 469.874 285.717 507.726 285.717ZM615.754 285.717C638.826 285.717 662.979 270.208 662.979 235.222C662.979 200.056 638.826 184.547 615.754 184.547C592.863 184.547 568.71 200.056 568.71 235.222C568.71 270.208 592.863 285.717 615.754 285.717ZM615.754 269.848C601.695 269.848 588.537 259.208 588.537 235.222C588.537 210.696 601.695 200.417 615.754 200.417C629.994 200.417 643.152 211.057 643.152 235.222C643.152 258.847 629.994 269.848 615.754 269.848ZM692.059 283.373V231.255C692.059 211.959 699.449 200.237 714.409 200.237C731.353 200.237 733.516 213.221 733.516 227.287V283.373H752.261V231.255C752.261 211.959 759.832 200.237 774.612 200.237C791.555 200.237 793.718 213.221 793.718 227.287V283.373H812.464V222.238C812.464 199.696 803.632 184.547 780.92 184.547C768.303 184.547 756.948 189.597 748.836 201.679C744.511 190.859 735.678 184.547 720.718 184.547C706.839 184.547 697.646 190.859 692.059 200.417V186.35H673.313V283.373H692.059ZM846.41 283.373V231.255C846.41 211.959 853.8 200.237 868.761 200.237C885.704 200.237 887.867 213.221 887.867 227.287V283.373H906.613V231.255C906.613 211.959 914.183 200.237 928.963 200.237C945.907 200.237 948.07 213.221 948.07 227.287V283.373H966.815V222.238C966.815 199.696 957.983 184.547 935.272 184.547C922.655 184.547 911.299 189.597 903.188 201.679C898.862 190.859 890.03 184.547 875.07 184.547C861.19 184.547 851.998 190.859 846.41 200.417V186.35H827.665V283.373H846.41ZM1012.3 285.717C1026.9 285.717 1036.27 279.405 1041.86 269.667V283.373H1060.78V186.35H1042.04V239.01C1042.04 258.125 1034.29 269.848 1018.61 269.848C1001.66 269.848 999.32 257.043 999.32 242.977V186.35H980.574V248.026C980.574 271.471 989.406 285.717 1012.3 285.717ZM1096.17 283.373V231.255C1096.17 211.959 1104.1 200.237 1120.33 200.237C1137.81 200.237 1140.28 212.963 1140.33 226.866L1140.33 283.373H1159.08V222.238C1159.08 199.696 1150.07 184.547 1126.63 184.547C1111.49 184.547 1101.76 190.859 1096.17 200.417V186.35H1077.43V283.373H1096.17ZM1192.85 173.366V152.627H1174.1V173.366H1192.85ZM1192.85 283.373V186.35H1174.1V283.373H1192.85ZM1251.12 283.373V268.405H1243.19C1233.82 268.405 1232.2 265.88 1232.2 255.961V200.597H1251.31V186.35H1232.2V161.464H1213.45V186.35H1198.67V200.597H1213.45V258.486C1213.45 278.504 1217.78 283.373 1237.43 283.373H1251.12ZM1265.24 314.932C1287.05 314.932 1292.82 308.44 1300.75 285.537L1335 186.35H1315.53L1292.64 258.666L1269.21 186.35H1248.48L1283.45 283.193L1282.73 285.357C1278.09 299.101 1273.8 299.948 1263.93 299.964L1256.23 299.964V314.932H1265.24ZM474.2 433.656V375.045H537.647V357.733H474.2V320.403H541.612V302.91H453.652V433.656H474.2ZM576.46 436C591.06 436 600.433 429.688 606.021 419.95V433.656H624.947V336.633H606.201V389.292C606.201 408.408 598.45 420.13 582.769 420.13C565.826 420.13 563.482 407.326 563.482 393.26V336.633H544.737V398.309C544.737 421.753 553.569 436 576.46 436ZM660.335 433.656V381.538C660.335 362.241 668.266 350.519 684.488 350.519C702.152 350.519 704.496 363.504 704.496 377.57V433.656H723.241V372.521C723.241 349.978 714.229 334.83 690.797 334.83C675.656 334.83 665.923 341.142 660.335 350.7V336.633H641.589V433.656H660.335ZM773.41 436C787.65 436 797.744 429.868 803.692 419.95V433.656H822.437V302.91H803.692V350.88C797.744 340.961 787.65 334.83 773.41 334.83C750.879 334.83 731.593 353.765 731.593 385.325C731.593 417.064 750.879 436 773.41 436ZM777.736 420.31C762.235 420.31 751.6 407.146 751.6 385.325C751.6 363.504 762.235 350.519 777.736 350.519C792.156 350.519 804.413 361.34 804.413 385.325C804.413 409.31 792.156 420.31 777.736 420.31ZM337 71.6327V100.782C333.282 102.663 329.571 104.557 325.844 106.419C320.288 109.197 316.042 113.233 313.473 118.973C312.009 122.243 311.035 125.615 311.026 129.207C311.019 131.702 311.092 134.201 311.255 136.691C311.741 144.124 311.334 151.531 310.546 158.915C309.819 165.716 308.537 172.428 306.802 179.05C304.428 188.113 301.211 196.865 297.116 205.29C291.973 215.868 285.634 225.676 278.076 234.693C274.117 239.419 269.89 243.891 265.312 248.016C264.329 248.901 264.02 249.728 264.193 251.007C264.729 254.971 265.165 258.947 265.606 262.924C266.027 266.732 266.4 270.544 266.805 274.353C267.245 278.505 267.702 282.656 268.145 286.807C268.55 290.616 268.941 294.427 269.345 298.235C269.716 301.726 270.104 305.213 270.468 308.704C270.851 312.37 271.203 316.04 271.593 319.708C272.05 323.999 272.544 328.288 273.002 332.581C273.459 336.877 273.881 341.177 274.336 345.474C274.795 349.799 275.288 354.121 275.739 358.449C276.192 362.782 276.591 367.12 277.053 371.451C277.574 376.337 278.16 381.214 278.682 386.1C279.442 393.227 280.162 400.359 280.908 407.487C281.574 413.848 282.246 420.209 282.931 426.567C283.269 429.714 283.645 432.855 284.004 436H283.369C283.145 435.865 282.936 435.681 282.693 435.603C280.823 435.004 278.914 434.512 277.078 433.826C272.647 432.172 268.249 430.432 263.838 428.723C253.611 424.761 243.387 420.792 233.159 416.834C223.452 413.077 213.743 409.33 204.034 405.578C194.654 401.954 185.271 398.342 175.9 394.695C175.015 394.349 174.259 394.356 173.385 394.731C171.582 395.503 169.733 396.168 167.903 396.875C159.013 400.306 150.121 403.73 141.234 407.167C130.35 411.377 119.473 415.605 108.589 419.815C96.7301 424.403 84.8674 428.982 73.0056 433.561C71.863 434.002 70.7133 434.425 69.5627 434.844C68.484 435.237 67.3994 435.615 66.3178 436H65.6834C66.0426 432.855 66.4179 429.713 66.757 426.566C67.4464 420.173 68.1138 413.775 68.7952 407.379C69.6657 399.203 70.5422 391.026 71.4157 382.85C72.2482 375.056 73.0867 367.263 73.9111 359.469C74.7096 351.92 75.487 344.369 76.2865 336.821C77.245 327.77 78.2256 318.721 79.1831 309.669C79.9886 302.052 80.765 294.431 81.5735 286.812C82.3109 279.857 83.0774 272.905 83.8218 265.952C84.0679 263.645 84.297 261.336 84.5072 259.027C84.5532 258.512 84.6933 258.306 85.2536 258.119C86.3352 257.757 87.3468 257.176 88.3714 256.652C95.7996 252.858 103.219 249.049 110.662 245.285C111.003 245.112 111.62 245.203 111.984 245.4C118.739 249.074 125.764 252.097 133.094 254.43C140.36 256.741 147.786 258.302 155.348 259.179C162.525 260.01 169.74 260.153 176.938 259.602C190.39 258.574 203.322 255.395 215.685 249.934C225.66 245.528 234.864 239.875 243.233 232.905C255.478 222.708 265.264 210.509 272.556 196.32C277.812 186.092 281.489 175.32 283.543 164.018C285.093 155.494 285.836 146.885 285.299 138.209C285.095 134.915 284.774 131.629 284.499 128.34C284.486 128.173 284.415 128.011 284.349 127.761C189.588 175.997 94.8801 224.208 0.0230372 272.494V271.394C0.0230372 262.382 0.0340435 253.369 0.00400101 244.358C0.00400101 243.572 0.264175 243.199 0.951566 242.849C52.662 216.554 104.362 190.238 156.065 163.926L214.856 134.022C224.654 129.036 234.45 124.048 244.244 119.055C262.24 109.879 280.197 100.623 298.186 91.4326C310.777 84.9998 323.394 78.618 335.998 72.2102C336.342 72.036 336.667 71.8258 337 71.6327ZM239.75 267.024C197.12 289.925 153.703 291.928 109.185 273.146C104.822 314.317 100.459 355.473 96.0848 396.75C96.534 396.585 96.8292 396.482 97.1203 396.369C106.69 392.68 116.261 388.992 125.83 385.297C141.719 379.16 157.61 373.029 173.485 366.855C174.455 366.478 175.242 366.538 176.172 366.9C188.045 371.53 199.929 376.134 211.814 380.732C223.672 385.322 235.537 389.901 247.399 394.484C249.42 395.264 251.443 396.037 253.562 396.852C248.946 353.457 244.345 310.212 239.75 267.024ZM177.065 0.28237C204.482 2.06599 229.419 10.872 251.82 26.8124C251.986 26.9305 252.145 27.0566 252.398 27.2488C252.025 27.459 251.735 27.6372 251.434 27.7903C243.174 31.9981 234.907 36.1959 226.655 40.4218C225.996 40.7601 225.495 40.8021 224.819 40.4308C213.837 34.3983 202.172 30.2515 189.856 27.9905C180.131 26.2039 170.326 25.6504 160.446 26.355C146.538 27.3479 133.225 30.6819 120.522 36.4111C107.203 42.4176 95.3964 50.626 85.1685 61.0665C71.8379 74.6738 62.3746 90.6003 56.7614 108.809C54.5711 115.911 53.1743 123.175 52.3488 130.557C51.4613 138.493 51.4964 146.432 52.1888 154.375C52.2978 155.628 52.4889 156.873 52.655 158.22C53.0562 158.032 53.4024 157.882 53.7386 157.711C79.5303 144.589 105.332 131.488 131.108 118.337C161.016 103.078 190.89 87.7527 220.798 72.4958C259.361 52.825 297.945 33.1942 336.52 13.5474C336.676 13.4683 336.84 13.4053 337 13.3342V42.4836C313.623 54.3824 290.244 66.2782 266.867 78.179C241.372 91.1578 215.87 104.128 190.384 117.126C127.305 149.301 64.2316 181.491 1.15568 213.673C0.821492 213.843 0.476295 213.992 0.0230372 214.204V213.057C0.0230372 204.08 0.0370452 195.103 0 186.126C0 185.287 0.27418 184.904 0.999593 184.54C4.92583 182.577 8.9171 180.717 12.7073 178.513C21.5583 173.364 26.0359 165.567 25.9958 155.299C25.9788 150.868 25.5596 146.436 25.6066 142.007C25.8998 114.56 33.249 89.1519 48.0614 66.016C63.6043 41.739 84.6673 23.8237 110.992 12.1151C122.246 7.10956 133.987 3.70447 146.144 1.77773C156.39 0.153253 166.707 -0.39124 177.065 0.28237Z" fill="black"/>
</g>
<defs>
<clipPath id="clip0_2_2">
<rect width="1335" height="436" fill="white"/>
</clipPath>
</defs>
</svg>
